<?xml version="1.0" encoding="iso-8859-1"?>
<!-- Generator: Adobe Illustrator 19.0.0, SVG Export Plug-In . SVG Version: 6.00 Build 0)  -->
<svg xmlns="http://www.w3.org/2000/svg" xmlns:xlink="http://www.w3.org/1999/xlink" version="1.1" id="Layer_1" x="0px" y="0px" viewBox="0 0 512 512" style="enable-background:new 0 0 512 512;" xml:space="preserve">
<circle style="fill:#00C3FF;" cx="256" cy="256" r="247.409"/>
<path style="fill:#00AAF0;" d="M365.96,457.593c-136.64,0-247.409-110.77-247.409-247.409c0-81.458,39.378-153.705,100.125-198.787  C99.746,29.394,8.591,132.048,8.591,256c0,136.64,110.77,247.409,247.409,247.409c55.183,0,106.133-18.083,147.284-48.623  C391.11,456.63,378.649,457.593,365.96,457.593z"/>
<path d="M437.02,74.98C388.668,26.629,324.38,0,256,0S123.332,26.629,74.98,74.98C26.629,123.332,0,187.62,0,256  s26.629,132.668,74.98,181.02C123.332,485.371,187.62,512,256,512s132.668-26.629,181.02-74.98C485.371,388.668,512,324.38,512,256  S485.371,123.332,437.02,74.98z M456.99,384.859h-27.171c16.626-36.282,25.975-77.372,27.078-120.268h37.752  C493.078,308.761,479.47,349.918,456.99,384.859z M215.964,453.961c-2.009-4.296-7.123-6.151-11.421-4.143  c-4.298,2.01-6.152,7.123-4.143,11.421c5.564,11.9,11.275,21.126,16.934,28.248c-43.074-12.026-80.589-43.709-106.69-87.447h69.948  c1.767,7.397,3.671,14.543,5.714,21.392c1.112,3.727,4.528,6.136,8.229,6.136c0.813,0,1.641-0.117,2.46-0.361  c4.546-1.357,7.133-6.142,5.775-10.689c-1.585-5.311-3.082-10.813-4.496-16.478h115.463c-2.298,9.178-4.822,17.934-7.573,26.188  c-13.9,41.698-32.652,66.591-50.166,66.591C242.504,494.819,228.284,480.309,215.964,453.961z M17.352,264.591h37.752  c1.103,42.897,10.451,83.986,27.078,120.268H55.01C32.53,349.918,18.922,308.761,17.352,264.591z M55.01,127.141h27.172  c-16.626,36.282-25.975,77.372-27.078,120.268H17.352C18.922,203.239,32.53,162.082,55.01,127.141z M296.059,58.089  c2.009,4.298,7.122,6.154,11.42,4.146c4.299-2.008,6.155-7.121,4.146-11.42c-5.572-11.926-11.293-21.17-16.96-28.302  c43.076,12.026,80.59,43.708,106.69,87.447h-69.948c-1.763-7.382-3.663-14.515-5.702-21.351c-1.356-4.546-6.143-7.135-10.688-5.776  c-4.546,1.356-7.132,6.142-5.776,10.688c1.581,5.299,3.074,10.789,4.484,16.439H198.261c2.298-9.178,4.822-17.934,7.573-26.188  c13.9-41.698,32.652-66.591,50.166-66.591C269.507,17.181,283.733,31.71,296.059,58.089z M182.176,247.409  c0.493-43.212,4.697-84.412,12.157-120.268h123.304c7.461,35.964,11.688,77.352,12.187,120.268H182.176z M329.824,264.591  c-0.493,43.213-4.697,84.412-12.157,120.268H194.363c-7.461-35.963-11.688-77.35-12.187-120.268H329.824z M217.487,22.47  c-10.522,13.195-19.993,31.993-27.952,55.869c-3.3,9.901-6.287,20.482-8.956,31.621h-69.933  C136.776,66.171,174.348,34.463,217.487,22.47z M176.802,127.141c-7.252,36.191-11.327,77.319-11.808,120.268H72.293  c1.208-44.171,11.683-85.328,28.988-120.268H176.802z M72.293,264.591h92.702c0.487,42.676,4.587,83.978,11.84,120.268h-75.554  C83.976,349.918,73.501,308.761,72.293,264.591z M294.513,489.53c10.522-13.195,19.993-31.993,27.952-55.869  c3.3-9.901,6.287-20.482,8.956-31.621h69.934C375.224,445.829,337.652,477.537,294.513,489.53z M335.199,384.859  c7.252-36.191,11.327-77.319,11.808-120.268h46.442c4.744,0,8.591-3.846,8.591-8.591c0-4.744-3.846-8.591-8.591-8.591h-46.442  c-0.487-42.674-4.587-83.977-11.84-120.268h75.554c17.305,34.941,27.78,76.098,28.988,120.268h-9.602  c-4.744,0-8.591,3.846-8.591,8.591c0,4.744,3.846,8.591,8.591,8.591h9.602c-1.208,44.171-11.683,85.328-28.988,120.268H335.199z   M456.896,247.409c-1.103-42.897-10.451-83.986-27.078-120.268h27.171c22.48,34.941,36.087,76.098,37.658,120.268H456.896z   M444.825,109.96h-23.61c-6.604-12.078-14.071-23.515-22.365-34.178c-7.916-10.178-16.392-19.39-25.327-27.618  C401.193,63.872,425.433,84.944,444.825,109.96z M138.479,48.164c-8.937,8.229-17.411,17.44-25.327,27.618  c-8.295,10.663-15.761,22.1-22.366,34.178h-23.61C86.567,84.944,110.807,63.872,138.479,48.164z M67.175,402.04h23.61  c6.604,12.078,14.071,23.515,22.365,34.178c7.916,10.178,16.392,19.39,25.327,27.618C110.807,448.128,86.567,427.056,67.175,402.04z   M373.521,463.836c8.937-8.229,17.411-17.44,25.327-27.618c8.294-10.664,15.76-22.101,22.365-34.178h23.61  C425.433,427.056,401.193,448.128,373.521,463.836z"/>
<g>
</g>
<g>
</g>
<g>
</g>
<g>
</g>
<g>
</g>
<g>
</g>
<g>
</g>
<g>
</g>
<g>
</g>
<g>
</g>
<g>
</g>
<g>
</g>
<g>
</g>
<g>
</g>
<g>
</g>
</svg>
